<svg width="100%" viewBox="0 0 680 300" role="img" xmlns="http://www.w3.org/2000/svg">
<defs>
<marker id="arrow" viewBox="0 0 10 10" refX="8" refY="5" markerWidth="6" markerHeight="6" orient="auto-start-reverse"><path d="M2 1L8 5L2 9" fill="none" stroke="#888780" stroke-width="1.5" stroke-linecap="round" stroke-linejoin="round"/></marker>
</defs>
<rect x="40" y="60" width="150" height="56" rx="8" fill="#F1EFE8" stroke="#5F5E5A" stroke-width="0.5"/>
<text x="115" y="84" text-anchor="middle" font-family="sans-serif" font-size="14" font-weight="500" fill="#2C2C2A">Original code</text>
<text x="115" y="102" text-anchor="middle" font-family="sans-serif" font-size="12" fill="#5F5E5A">source file</text>
<rect x="265" y="60" width="150" height="56" rx="8" fill="#EEEDFE" stroke="#534AB7" stroke-width="0.5"/>
<text x="340" y="84" text-anchor="middle" font-family="sans-serif" font-size="14" font-weight="500" fill="#26215C">NL description</text>
<text x="340" y="102" text-anchor="middle" font-family="sans-serif" font-size="12" fill="#534AB7">describe step</text>
<rect x="490" y="60" width="150" height="56" rx="8" fill="#E1F5EE" stroke="#0F6E56" stroke-width="0.5"/>
<text x="565" y="84" text-anchor="middle" font-family="sans-serif" font-size="14" font-weight="500" fill="#04342C">Regenerated code</text>
<text x="565" y="102" text-anchor="middle" font-family="sans-serif" font-size="12" fill="#0F6E56">regenerate step</text>
<rect x="265" y="190" width="150" height="56" rx="8" fill="#FAEEDA" stroke="#854F0B" stroke-width="0.5"/>
<text x="340" y="214" text-anchor="middle" font-family="sans-serif" font-size="14" font-weight="500" fill="#412402">Original tests</text>
<text x="340" y="232" text-anchor="middle" font-family="sans-serif" font-size="12" fill="#854F0B">oracle</text>
<rect x="490" y="190" width="150" height="56" rx="8" fill="#EAF3DE" stroke="#3B6D11" stroke-width="0.5"/>
<text x="565" y="214" text-anchor="middle" font-family="sans-serif" font-size="14" font-weight="500" fill="#173404">Pass fraction</text>
<text x="565" y="232" text-anchor="middle" font-family="sans-serif" font-size="12" fill="#3B6D11">fidelity score</text>
<line x1="190" y1="88" x2="263" y2="88" stroke="#888780" stroke-width="1.5" marker-end="url(#arrow)"/>
<line x1="415" y1="88" x2="488" y2="88" stroke="#888780" stroke-width="1.5" marker-end="url(#arrow)"/>
<path d="M565 116 L565 160 L340 160 L340 188" fill="none" stroke="#888780" stroke-width="1.5" marker-end="url(#arrow)"/>
<line x1="415" y1="218" x2="488" y2="218" stroke="#888780" stroke-width="1.5" marker-end="url(#arrow)"/>
<text x="226" y="50" text-anchor="middle" font-family="sans-serif" font-size="12" fill="#5F5E5A">describe</text>
<text x="451" y="50" text-anchor="middle" font-family="sans-serif" font-size="12" fill="#5F5E5A">regenerate</text>
<text x="451" y="180" text-anchor="middle" font-family="sans-serif" font-size="12" fill="#5F5E5A">evaluate</text>
</svg>
